<svg width="247" height="326" viewBox="0 0 247 326" fill="none" xmlns="http://www.w3.org/2000/svg">
<path d="M-174 0H-16L247 326H-174V0Z" fill="#7092C4"/>
<path d="M76.0958 218.021H61.4115V239.096C61.4115 239.763 61.2954 240.404 61.084 241H76.0958C77.1475 241 78.0001 240.147 78.0001 239.096V219.926C78.0001 218.874 77.1475 218.021 76.0958 218.021Z" fill="white"/>
<path d="M29.5886 214.213H14.9043C13.8526 214.213 13 215.066 13 216.117V239.096C13 240.147 13.8526 241 14.9043 241H29.9161C29.7047 240.404 29.5886 239.763 29.5886 239.096V214.213Z" fill="white"/>
<path d="M62.2728 188.277L59.1765 183.612L62.2717 178.959C63.1122 177.695 62.2044 176 60.6861 176H45.5059C44.4542 176 43.6016 176.853 43.6016 177.904V198.979H47.4102V191.234H60.6861C62.2016 191.234 63.1125 189.542 62.2728 188.277Z" fill="white"/>
<path d="M55.6988 202.787H35.3018C34.2501 202.787 33.3975 203.64 33.3975 204.691V239.096C33.3975 240.147 34.2501 241 35.3018 241H55.6988C56.7505 241 57.6031 240.147 57.6031 239.096V204.691C57.6031 203.64 56.7505 202.787 55.6988 202.787ZM48.0393 221.83H42.5079C41.4562 221.83 40.6036 220.977 40.6036 219.926C40.6036 218.874 41.4562 218.021 42.5079 218.021H43.596V214.213H43.1426C42.091 214.213 41.2383 213.36 41.2383 212.309C41.2383 211.257 42.091 210.404 43.1426 210.404H45.5003C46.552 210.404 47.4046 211.257 47.4046 212.309V218.021H48.0393C49.091 218.021 49.9436 218.874 49.9436 219.926C49.9436 220.977 49.091 221.83 48.0393 221.83Z" fill="white"/>
</svg>
