<svg width="56" height="56" viewBox="0 0 56 56" fill="none" xmlns="http://www.w3.org/2000/svg">
<g opacity="0.9" clip-path="url(#clip0)">
<path d="M54.7422 47.9793H53.8265V44.495C53.8265 44.0186 53.5814 43.599 53.2109 43.3542V32.6079C54.0472 32.5648 54.7148 31.8729 54.7148 31.0261V27.6355C54.7148 26.761 54.0034 26.0495 53.1289 26.0495H52.3087L49.4682 16.0799C49.235 15.2618 48.4781 14.6904 47.6275 14.6904H42.0197V12.0006L42.7558 11.7416C44.0856 11.2893 44.0935 9.41314 42.7558 8.95836L28.4212 3.91486C28.084 3.79641 27.71 3.79674 27.3744 3.91508L13.0402 8.95836C11.7109 9.40975 11.7022 11.2873 13.0402 11.7416L17.942 13.4663V14.6904H8.37255C7.52194 14.6904 6.76495 15.2618 6.53177 16.08L6.15628 17.3976C5.88656 18.4451 7.41092 18.8806 7.73412 17.8472L8.10961 16.5295C8.14297 16.4126 8.25103 16.331 8.37255 16.331H17.942V18.8438C17.942 19.7089 18.6459 20.4128 19.5111 20.4128H20.3696C20.4479 22.6973 21.5436 24.7256 23.208 26.0495H5.39722L6.68522 21.5288C6.80936 21.0931 6.55681 20.6393 6.12106 20.5151C5.68586 20.3911 5.23163 20.6435 5.10738 21.0793L3.6913 26.0494H2.87109C1.99664 26.0494 1.28516 26.7609 1.28516 27.6353V31.026C1.28516 31.8728 1.95278 32.5647 2.78906 32.6078V43.3208C2.38853 43.5595 2.11881 43.9958 2.11881 44.4948V47.9792H1.25781C0.564266 47.9792 0 48.5435 0 49.237V52.9167C0 53.6103 0.564266 54.1745 1.25781 54.1745H42.2734C42.7266 54.1745 43.0938 53.8073 43.0938 53.3542C43.0938 52.9012 42.7266 52.5339 42.2734 52.5339H1.64062V49.6198H54.3594V52.5339H45.9922C44.9136 52.5597 44.9077 54.1469 45.9922 54.1745H54.7422C55.4357 54.1745 56 53.6103 56 52.9167V49.237C56 48.5435 55.4357 47.9793 54.7422 47.9793ZM33.4688 36.5653C30.7412 36.566 25.2577 36.5647 22.5312 36.5653C21.7774 36.5653 21.1641 37.1785 21.1641 37.9325V47.9793H19.3734V44.495C19.3734 44.0186 19.1283 43.599 18.7578 43.3542V32.6119H37.2422V43.3541C36.8718 43.599 36.6266 44.0186 36.6266 44.4948V47.9792H34.8359V37.9323C34.8359 37.1785 34.2227 36.5653 33.4688 36.5653ZM6.61719 32.612V43.1278H4.42969V32.612H6.61719ZM8.25781 43.3933V32.6119H13.2891V43.3541C12.9187 43.599 12.6735 44.0186 12.6735 44.4948V47.9792H8.81869V44.4948C8.81869 44.0428 8.59709 43.6424 8.25781 43.3933ZM14.9297 32.612H17.1172V43.1278H14.9297V32.612ZM38.8828 32.612H41.0703V43.1278H38.8828V32.612ZM42.7109 43.3541V32.6119H47.7422V43.3541C47.3718 43.599 47.1266 44.0186 47.1266 44.4948V47.9792H43.3265V44.4948C43.3265 44.0186 43.0813 43.599 42.7109 43.3541ZM49.3828 32.612H51.5703V43.1278H49.3828V32.612ZM22.006 20.1647C22.006 16.8435 24.739 14.2626 27.898 14.2626C35.7077 14.568 35.6803 25.7787 27.8978 26.0495C24.6463 26.0494 22.006 23.4024 22.006 20.1647ZM47.6275 16.3309C47.749 16.3309 47.8571 16.4126 47.8904 16.5294L50.6028 26.0494H32.5882C34.2916 24.6929 35.3496 22.6465 35.4267 20.4127H36.285C37.1502 20.4127 37.854 19.7088 37.854 18.8437V16.3309H40.3792V19.5923C40.3792 20.0454 40.7463 20.4127 41.1995 20.4127C41.6526 20.4127 42.0198 20.0454 42.0198 19.5923V16.3309H47.6275ZM40.3791 14.6903H37.8539V13.4661L40.3791 12.5777V14.6903ZM37.8539 11.7271V11.2888C37.8539 10.455 36.9988 10.046 35.5572 9.76894C33.3436 9.34358 30.1674 9.22206 27.898 9.22206C25.8308 9.22206 23.3571 9.31788 21.3271 9.59471C18.961 9.9481 17.7727 10.2422 17.942 11.7272L14.028 10.35L27.8981 5.47006L41.7681 10.35C39.7649 11.0546 39.8739 11.0164 37.8539 11.7271ZM19.5826 11.6317C23.4755 10.5698 32.3369 10.5761 36.2133 11.6317V18.772H35.3031C33.6888 10.6279 22.1007 10.639 20.493 18.772H19.5827C19.5826 17.9784 19.5826 12.556 19.5826 11.6317ZM2.92578 27.69H53.0742V30.9713H2.92578V27.69ZM3.75944 47.9793V44.7685H7.17806V47.9793H3.75944ZM14.3141 47.9793V44.7685H17.7327V47.9793H14.3141ZM22.8047 38.2059H27.1797V47.9793H22.8047V38.2059ZM28.8203 47.9793V38.2059H33.1953V47.9793H28.8203ZM38.2673 47.9793V44.7685H41.6859V47.9793H38.2673ZM48.7673 47.9793V44.7685H52.1859V47.9793H48.7673Z" fill="white"/>
<path d="M27.1793 19.7487V20.5347H26.6054C26.1523 20.5347 25.7851 20.902 25.7851 21.355C25.7851 21.808 26.1523 22.1753 26.6054 22.1753H27.1793V22.9147C27.1793 23.3677 27.5465 23.735 27.9996 23.735C28.4528 23.735 28.8199 23.3677 28.8199 22.9147V22.1753H29.3938C29.847 22.1753 30.2141 21.808 30.2141 21.355C30.2141 20.902 29.847 20.5347 29.3938 20.5347H28.8199V19.7487C31.6894 18.7897 31.0624 14.5593 27.9996 14.5098C24.9364 14.5596 24.3103 18.7904 27.1793 19.7487ZM27.9996 16.1505C29.3783 16.1942 29.378 18.1933 27.9996 18.2368C26.6209 18.193 26.6213 16.194 27.9996 16.1505Z" fill="white"/>
</g>
<defs>
<clipPath id="clip0">
<rect width="56" height="56" fill="white"/>
</clipPath>
</defs>
</svg>
