<svg width="50" height="50" viewBox="0 0 50 50" fill="none" xmlns="http://www.w3.org/2000/svg">
<g clip-path="url(#clip0)">
<path d="M49.6512 18.962L44.0651 4.43816C43.0066 1.69257 39.9227 0.324977 37.1771 1.3835C37.1372 1.3989 37.0975 1.41472 37.0579 1.43106L9.14253 13.0028C6.48445 14.0932 5.17805 17.1019 6.1963 19.7885L6.96387 21.8373H5.20313C2.3309 21.8405 0.00322594 24.1682 0 27.0404V45.7717C0.00322594 48.6439 2.3309 50.9716 5.20313 50.9748H40.5844C43.4567 50.9716 45.7843 48.6439 45.7876 45.7717V27.0404C45.7859 26.758 45.7608 26.4762 45.7126 26.198L46.6792 25.8067C49.361 24.7075 50.679 21.672 49.6512 18.962ZM5.20313 23.5024H40.5844C42.453 23.5077 43.9943 24.967 44.1017 26.8324H1.68581C1.79321 24.9669 3.33458 23.5076 5.20313 23.5024ZM13.5706 18.4874L19.135 15.7044L20.2789 18.5657L14.7145 21.3479L13.5706 18.4874ZM44.1226 45.7718C44.1203 47.725 42.5376 49.3077 40.5844 49.3099H5.20313C3.24998 49.3077 1.66729 47.725 1.665 45.7718V35.1574H44.1226V45.7718ZM44.1226 33.4924H1.665V28.4974H44.1226V33.4924ZM46.0548 24.2683L45.1848 24.6205C44.2862 22.9113 42.5154 21.8401 40.5844 21.8374H17.4592L21.7091 19.712C22.0967 19.5186 22.2712 19.0603 22.1104 18.6581L20.3447 14.2458C20.1739 13.819 19.6895 13.6113 19.2626 13.7819C19.2411 13.7906 19.2199 13.8 19.1992 13.8104L12.1405 17.3419C11.7532 17.5357 11.5792 17.9939 11.74 18.3959L13.117 21.8374H8.74126L7.75558 19.2084C7.0568 17.3625 7.95434 15.2958 9.78022 14.5464L37.6948 2.97462C39.561 2.20081 41.7011 3.08628 42.475 4.95243C42.4871 4.98147 42.4988 5.01071 42.51 5.04005L48.0961 19.5639C48.8028 21.4261 47.8975 23.5123 46.0548 24.2683Z" fill="white"/>
<path d="M29.9466 46.9693C31.498 47.8705 33.4137 47.8705 34.965 46.9693C37.3504 48.3551 40.4075 47.5447 41.7933 45.1594C43.1791 42.7741 42.3688 39.7169 39.9835 38.3311C39.2179 37.8864 38.3479 37.653 37.4625 37.6551C36.5849 37.6555 35.723 37.8887 34.965 38.3311C32.5797 36.9453 29.5226 37.7555 28.1368 40.1409C26.751 42.5263 27.5613 45.5833 29.9466 46.9693ZM36.357 39.5234C36.7111 39.3929 37.0851 39.3242 37.4625 39.3202C39.3016 39.3202 40.7925 40.8111 40.7925 42.6502C40.7925 44.4893 39.3016 45.9802 37.4625 45.9802C37.0851 45.9763 36.7111 45.9076 36.357 45.7771C37.8309 43.953 37.8309 41.3474 36.357 39.5234ZM34.965 40.4707C36.0751 41.7118 36.0751 43.5887 34.965 44.8297C33.855 43.5887 33.855 41.7117 34.965 40.4707ZM32.4675 39.3202C32.845 39.3241 33.219 39.3929 33.5731 39.5234C32.0991 41.3474 32.0991 43.9531 33.5731 45.7771C33.219 45.9076 32.845 45.9763 32.4675 45.9802C30.6284 45.9802 29.1375 44.4893 29.1375 42.6502C29.1375 40.811 30.6284 39.3202 32.4675 39.3202Z" fill="white"/>
<path d="M35.1166 17.207L35.793 18.7285L43.7351 15.1981L43.0588 13.6766L35.1166 17.207Z" fill="white"/>
<path d="M41.2861 10.1504L29.8145 15.4453L30.5119 16.9564L41.9836 11.6615L41.2861 10.1504Z" fill="white"/>
</g>
<defs>
<clipPath id="clip0">
<rect width="50" height="50" fill="white"/>
</clipPath>
</defs>
</svg>
