<svg width="60" height="60" viewBox="0 0 60 60" fill="none" xmlns="http://www.w3.org/2000/svg">
<g opacity="0.9" clip-path="url(#clip0)">
<path d="M40.5469 29.0281H40.7469V28.8281V24.1406V23.9406H40.5469H37.0312H36.8312V24.1406V28.8281V29.0281H37.0312H40.5469ZM35.8594 21.9969H41.7188C42.2554 21.9969 42.6906 22.432 42.6906 22.9688V30C42.6906 30.5368 42.2554 30.9719 41.7188 30.9719H35.8594C35.3227 30.9719 34.8875 30.5368 34.8875 30V22.9688C34.8875 22.432 35.3227 21.9969 35.8594 21.9969Z" fill="white" stroke="#6A87B4" stroke-width="0.4"/>
<mask id="path-2-inside-1" fill="white">
<path d="M59.6565 23.8433L47.2346 11.4214C47.2291 11.4159 47.2229 11.4111 47.2173 11.4057C47.1954 11.3847 47.1733 11.364 47.1499 11.3447C47.1412 11.3376 47.1317 11.3314 47.1228 11.3246C47.1014 11.3079 47.08 11.2913 47.0575 11.2763C47.0503 11.2714 47.0425 11.2674 47.0352 11.2627C47.0102 11.2468 46.985 11.2311 46.9589 11.2171C46.954 11.2145 46.9488 11.2124 46.9439 11.2098C46.9149 11.1948 46.8855 11.1806 46.8552 11.1679C46.8519 11.1665 46.8484 11.1656 46.8451 11.1641C46.8132 11.1513 46.7808 11.1393 46.7475 11.1292C46.7435 11.1281 46.7395 11.1273 46.7355 11.1262C46.7031 11.1167 46.6702 11.108 46.6367 11.1013C46.6269 11.0993 46.6168 11.0985 46.607 11.0968C46.5792 11.092 46.5514 11.087 46.5231 11.0842C46.4843 11.0801 46.4452 11.0781 46.406 11.0781H42.204L37.8597 6.73387C37.832 6.7061 37.803 6.67997 37.7729 6.65536C37.7492 6.6359 37.7245 6.61844 37.6997 6.6011C37.6932 6.59665 37.6871 6.59137 37.6806 6.58704C37.6506 6.567 37.6197 6.54883 37.5884 6.53196C37.5865 6.5309 37.5846 6.52961 37.5826 6.52844C37.5508 6.51145 37.5182 6.49633 37.4854 6.4825C37.4833 6.48157 37.4813 6.48051 37.4791 6.47958C37.4477 6.46657 37.4157 6.45543 37.3835 6.44536C37.3793 6.44407 37.3752 6.44231 37.3709 6.44102C37.3407 6.43188 37.3101 6.42461 37.2794 6.41805C37.2726 6.41653 37.2661 6.41454 37.2594 6.41313C37.2293 6.40715 37.1988 6.40317 37.1683 6.39954C37.1608 6.3986 37.1533 6.39708 37.1458 6.39625C37.1075 6.3925 37.069 6.39051 37.0305 6.39063H22.9692C22.9308 6.39063 22.8922 6.3925 22.8539 6.39625C22.8464 6.39696 22.8391 6.3986 22.8316 6.39942C22.801 6.40305 22.7706 6.40704 22.7403 6.41301C22.7338 6.4143 22.7273 6.41641 22.7208 6.41782C22.6898 6.4245 22.6591 6.43176 22.6288 6.4409C22.6248 6.44208 22.6209 6.44383 22.6168 6.44512C22.5843 6.45532 22.5522 6.46657 22.5206 6.47958C22.5186 6.4804 22.5167 6.48145 22.5147 6.48227C22.4817 6.49622 22.449 6.51133 22.417 6.52844C22.4154 6.52926 22.414 6.53032 22.4123 6.53126C22.3806 6.54836 22.3494 6.56676 22.319 6.58704C22.3127 6.59125 22.307 6.59618 22.3008 6.60051C22.2757 6.61797 22.2507 6.63567 22.2268 6.65524C22.1967 6.67985 22.1677 6.70598 22.14 6.73376L17.7955 11.0781H13.5935C13.5542 11.0781 13.5152 11.0801 13.4765 11.084C13.4481 11.0868 13.4202 11.0917 13.3923 11.0965C13.3825 11.0983 13.3726 11.0991 13.3629 11.101C13.3292 11.1077 13.2963 11.1163 13.2637 11.1259C13.2599 11.1271 13.2559 11.1278 13.2521 11.129C13.2187 11.1392 13.1863 11.1511 13.1543 11.164C13.1511 11.1653 13.1477 11.1663 13.1445 11.1677C13.1141 11.1803 13.0845 11.1947 13.0554 11.2097C13.0506 11.2122 13.0455 11.2142 13.0407 11.2168C13.0145 11.2308 12.9893 11.2465 12.9643 11.2625C12.9569 11.2672 12.9492 11.2711 12.942 11.2761C12.9193 11.2913 12.8979 11.3081 12.8763 11.3248C12.8676 11.3316 12.8584 11.3376 12.8498 11.3446C12.8246 11.3654 12.8007 11.3875 12.7774 11.4102C12.7734 11.4141 12.7691 11.4174 12.7651 11.4214L0.343213 23.8433C-0.114404 24.3009 -0.114404 25.0429 0.343213 25.5005L7.37446 32.5318C7.59419 32.7515 7.89231 32.875 8.2031 32.875C8.51388 32.875 8.812 32.7515 9.03173 32.5318L12.4216 29.1418V54.4375C12.4216 55.0847 12.9463 55.6094 13.5935 55.6094H46.406C47.0531 55.6094 47.5779 55.0847 47.5779 54.4375V29.1418L50.968 32.5319C51.1968 32.7606 51.4966 32.875 51.7966 32.875C52.0966 32.875 52.3964 32.7606 52.6252 32.5318L59.6565 25.5005C60.1141 25.0429 60.1141 24.3009 59.6565 23.8433ZM45.2341 26.3131V48.5781H14.7654V13.4219H17.7955L24.4835 20.1099C24.7124 20.3388 25.0122 20.4531 25.3121 20.4531C25.612 20.4531 25.912 20.3388 26.1408 20.1099L26.484 19.7666L28.7117 21.9944L25.3421 36.5958C25.2513 36.9895 25.3697 37.4022 25.6554 37.688L29.171 41.2036C29.3999 41.4325 29.6997 41.5469 29.9996 41.5469C30.2996 41.5469 30.5994 41.4325 30.8283 41.2036L34.3439 37.688C34.6296 37.4023 34.7479 36.9896 34.6571 36.5958L31.2876 21.9944L33.5154 19.7666L33.8586 20.1099C34.0875 20.3388 34.3872 20.4531 34.6872 20.4531C34.9872 20.4531 35.287 20.3388 35.5159 20.1099L42.2039 13.4219H45.2341V26.3119V26.3131ZM21.7966 50.9219V53.2656H19.4529V50.9219H21.7966ZM24.1404 50.9219H26.4841V53.2656H24.1404V50.9219ZM28.8279 50.9219H31.1716V53.2656H28.8279V50.9219ZM33.5154 50.9219H35.8591V53.2656H33.5154V50.9219ZM38.2029 50.9219H40.5466V53.2656H38.2029V50.9219ZM22.9685 9.21977L28.3425 14.5938L25.6561 17.2802C25.6558 17.2804 25.6557 17.2805 25.6555 17.2807C25.6552 17.281 25.6551 17.2811 25.6549 17.2813L25.3122 17.624L19.9383 12.25L22.9685 9.21977ZM40.0611 12.25L34.6872 17.624L34.3445 17.2812C34.3443 17.2811 34.3441 17.2809 34.344 17.2806C34.3439 17.2804 34.3436 17.2803 34.3434 17.2802L31.657 14.5938L37.031 9.21989L40.0611 12.25ZM29.9997 26.8366L32.2275 36.49L29.9997 38.7177L27.772 36.49L29.9997 26.8366ZM29.9997 19.9677L28.1414 18.1094L29.9997 16.2511L31.858 18.1094L29.9997 19.9677ZM29.9997 12.9364L25.7976 8.73438H34.2017L29.9997 12.9364ZM8.20274 30.0459L2.82888 24.6719L12.4216 15.0791V25.827L8.20274 30.0459ZM14.7654 50.9219H17.1091V53.2656H14.7654V50.9219ZM42.8904 53.2656V50.9219H45.2341V53.2656H42.8904ZM51.7966 30.0459L47.5779 25.8271V15.0793L57.1705 24.6719L51.7966 30.0459Z"/>
</mask>
<path d="M59.6565 23.8433L47.2346 11.4214C47.2291 11.4159 47.2229 11.4111 47.2173 11.4057C47.1954 11.3847 47.1733 11.364 47.1499 11.3447C47.1412 11.3376 47.1317 11.3314 47.1228 11.3246C47.1014 11.3079 47.08 11.2913 47.0575 11.2763C47.0503 11.2714 47.0425 11.2674 47.0352 11.2627C47.0102 11.2468 46.985 11.2311 46.9589 11.2171C46.954 11.2145 46.9488 11.2124 46.9439 11.2098C46.9149 11.1948 46.8855 11.1806 46.8552 11.1679C46.8519 11.1665 46.8484 11.1656 46.8451 11.1641C46.8132 11.1513 46.7808 11.1393 46.7475 11.1292C46.7435 11.1281 46.7395 11.1273 46.7355 11.1262C46.7031 11.1167 46.6702 11.108 46.6367 11.1013C46.6269 11.0993 46.6168 11.0985 46.607 11.0968C46.5792 11.092 46.5514 11.087 46.5231 11.0842C46.4843 11.0801 46.4452 11.0781 46.406 11.0781H42.204L37.8597 6.73387C37.832 6.7061 37.803 6.67997 37.7729 6.65536C37.7492 6.6359 37.7245 6.61844 37.6997 6.6011C37.6932 6.59665 37.6871 6.59137 37.6806 6.58704C37.6506 6.567 37.6197 6.54883 37.5884 6.53196C37.5865 6.5309 37.5846 6.52961 37.5826 6.52844C37.5508 6.51145 37.5182 6.49633 37.4854 6.4825C37.4833 6.48157 37.4813 6.48051 37.4791 6.47958C37.4477 6.46657 37.4157 6.45543 37.3835 6.44536C37.3793 6.44407 37.3752 6.44231 37.3709 6.44102C37.3407 6.43188 37.3101 6.42461 37.2794 6.41805C37.2726 6.41653 37.2661 6.41454 37.2594 6.41313C37.2293 6.40715 37.1988 6.40317 37.1683 6.39954C37.1608 6.3986 37.1533 6.39708 37.1458 6.39625C37.1075 6.3925 37.069 6.39051 37.0305 6.39063H22.9692C22.9308 6.39063 22.8922 6.3925 22.8539 6.39625C22.8464 6.39696 22.8391 6.3986 22.8316 6.39942C22.801 6.40305 22.7706 6.40704 22.7403 6.41301C22.7338 6.4143 22.7273 6.41641 22.7208 6.41782C22.6898 6.4245 22.6591 6.43176 22.6288 6.4409C22.6248 6.44208 22.6209 6.44383 22.6168 6.44512C22.5843 6.45532 22.5522 6.46657 22.5206 6.47958C22.5186 6.4804 22.5167 6.48145 22.5147 6.48227C22.4817 6.49622 22.449 6.51133 22.417 6.52844C22.4154 6.52926 22.414 6.53032 22.4123 6.53126C22.3806 6.54836 22.3494 6.56676 22.319 6.58704C22.3127 6.59125 22.307 6.59618 22.3008 6.60051C22.2757 6.61797 22.2507 6.63567 22.2268 6.65524C22.1967 6.67985 22.1677 6.70598 22.14 6.73376L17.7955 11.0781H13.5935C13.5542 11.0781 13.5152 11.0801 13.4765 11.084C13.4481 11.0868 13.4202 11.0917 13.3923 11.0965C13.3825 11.0983 13.3726 11.0991 13.3629 11.101C13.3292 11.1077 13.2963 11.1163 13.2637 11.1259C13.2599 11.1271 13.2559 11.1278 13.2521 11.129C13.2187 11.1392 13.1863 11.1511 13.1543 11.164C13.1511 11.1653 13.1477 11.1663 13.1445 11.1677C13.1141 11.1803 13.0845 11.1947 13.0554 11.2097C13.0506 11.2122 13.0455 11.2142 13.0407 11.2168C13.0145 11.2308 12.9893 11.2465 12.9643 11.2625C12.9569 11.2672 12.9492 11.2711 12.942 11.2761C12.9193 11.2913 12.8979 11.3081 12.8763 11.3248C12.8676 11.3316 12.8584 11.3376 12.8498 11.3446C12.8246 11.3654 12.8007 11.3875 12.7774 11.4102C12.7734 11.4141 12.7691 11.4174 12.7651 11.4214L0.343213 23.8433C-0.114404 24.3009 -0.114404 25.0429 0.343213 25.5005L7.37446 32.5318C7.59419 32.7515 7.89231 32.875 8.2031 32.875C8.51388 32.875 8.812 32.7515 9.03173 32.5318L12.4216 29.1418V54.4375C12.4216 55.0847 12.9463 55.6094 13.5935 55.6094H46.406C47.0531 55.6094 47.5779 55.0847 47.5779 54.4375V29.1418L50.968 32.5319C51.1968 32.7606 51.4966 32.875 51.7966 32.875C52.0966 32.875 52.3964 32.7606 52.6252 32.5318L59.6565 25.5005C60.1141 25.0429 60.1141 24.3009 59.6565 23.8433ZM45.2341 26.3131V48.5781H14.7654V13.4219H17.7955L24.4835 20.1099C24.7124 20.3388 25.0122 20.4531 25.3121 20.4531C25.612 20.4531 25.912 20.3388 26.1408 20.1099L26.484 19.7666L28.7117 21.9944L25.3421 36.5958C25.2513 36.9895 25.3697 37.4022 25.6554 37.688L29.171 41.2036C29.3999 41.4325 29.6997 41.5469 29.9996 41.5469C30.2996 41.5469 30.5994 41.4325 30.8283 41.2036L34.3439 37.688C34.6296 37.4023 34.7479 36.9896 34.6571 36.5958L31.2876 21.9944L33.5154 19.7666L33.8586 20.1099C34.0875 20.3388 34.3872 20.4531 34.6872 20.4531C34.9872 20.4531 35.287 20.3388 35.5159 20.1099L42.2039 13.4219H45.2341V26.3119V26.3131ZM21.7966 50.9219V53.2656H19.4529V50.9219H21.7966ZM24.1404 50.9219H26.4841V53.2656H24.1404V50.9219ZM28.8279 50.9219H31.1716V53.2656H28.8279V50.9219ZM33.5154 50.9219H35.8591V53.2656H33.5154V50.9219ZM38.2029 50.9219H40.5466V53.2656H38.2029V50.9219ZM22.9685 9.21977L28.3425 14.5938L25.6561 17.2802C25.6558 17.2804 25.6557 17.2805 25.6555 17.2807C25.6552 17.281 25.6551 17.2811 25.6549 17.2813L25.3122 17.624L19.9383 12.25L22.9685 9.21977ZM40.0611 12.25L34.6872 17.624L34.3445 17.2812C34.3443 17.2811 34.3441 17.2809 34.344 17.2806C34.3439 17.2804 34.3436 17.2803 34.3434 17.2802L31.657 14.5938L37.031 9.21989L40.0611 12.25ZM29.9997 26.8366L32.2275 36.49L29.9997 38.7177L27.772 36.49L29.9997 26.8366ZM29.9997 19.9677L28.1414 18.1094L29.9997 16.2511L31.858 18.1094L29.9997 19.9677ZM29.9997 12.9364L25.7976 8.73438H34.2017L29.9997 12.9364ZM8.20274 30.0459L2.82888 24.6719L12.4216 15.0791V25.827L8.20274 30.0459ZM14.7654 50.9219H17.1091V53.2656H14.7654V50.9219ZM42.8904 53.2656V50.9219H45.2341V53.2656H42.8904ZM51.7966 30.0459L47.5779 25.8271V15.0793L57.1705 24.6719L51.7966 30.0459Z" fill="white" stroke="#6A87B4" stroke-width="0.8" mask="url(#path-2-inside-1)"/>
</g>
<defs>
<clipPath id="clip0">
<rect width="60" height="60" fill="white"/>
</clipPath>
</defs>
</svg>
