<svg width="40" height="40" viewBox="0 0 40 40" fill="none" xmlns="http://www.w3.org/2000/svg">
<path d="M39.4104 12.3972H35.654V11.1081C35.654 10.3216 35.0785 9.66859 34.3268 9.54367V8.51569C34.3268 8.19008 34.0629 7.92611 33.7373 7.92611H33.5322L34.9052 2.46582C34.9846 2.15004 34.7929 1.82971 34.4772 1.75031C34.1613 1.67107 33.841 1.86249 33.7616 2.17834L32.3164 7.92611H31.8148C31.4892 7.92611 31.2253 8.19008 31.2253 8.51569V9.56411C30.5248 9.7292 30.0014 10.358 30.0014 11.1081V12.3972H25.6543V11.7122C25.6543 10.9951 25.0708 10.4116 24.3537 10.4116H15.6464C14.9292 10.4116 14.3458 10.9951 14.3458 11.7122V12.3972H8.51438C8.1887 12.3972 7.9248 12.6612 7.9248 12.9868C7.9248 13.3124 8.1887 13.5764 8.51438 13.5764H38.8208V15.4027H1.17916V13.5764H6.15614C6.48183 13.5764 6.74572 13.3124 6.74572 12.9868C6.74572 12.6612 6.48183 12.3972 6.15614 12.3972H0.589579C0.263895 12.3972 0 12.6612 0 12.9868V15.9922C0 16.3179 0.263895 16.5818 0.589579 16.5818H2.48228V37.6786C2.48228 38.0042 2.74618 38.2682 3.07186 38.2682H6.15606C6.48175 38.2682 6.74564 38.0042 6.74564 37.6786V19.9123C8.54433 19.8563 9.99273 18.3883 10.0165 16.5818H14.2878V20.2861C14.2878 20.6117 14.5517 20.8757 14.8774 20.8757H25.1224C25.4481 20.8757 25.712 20.6117 25.712 20.2861V16.5818H29.9834C30.0072 18.3883 31.4556 19.8563 33.2542 19.9123V37.6786C33.2542 38.0042 33.5181 38.2682 33.8438 38.2682H36.928C37.2537 38.2682 37.5176 38.0042 37.5176 37.6786V30.2478C37.5176 29.9222 37.2537 29.6582 36.928 29.6582C36.6023 29.6582 36.3384 29.9222 36.3384 30.2478V37.089H34.4334V16.5818H36.3384V27.8895C36.3384 28.2151 36.6023 28.4791 36.928 28.4791C37.2537 28.4791 37.5176 28.2151 37.5176 27.8895V16.5818H39.4103C39.7359 16.5818 39.9998 16.3179 39.9998 15.9922V12.9868C40 12.6612 39.736 12.3972 39.4104 12.3972ZM32.4043 9.10526H32.7743C32.775 9.10526 32.7758 9.10542 32.7765 9.10542C32.777 9.10542 32.7775 9.10526 32.7781 9.10526H33.1477V9.52041H32.4043V9.10526ZM31.1805 11.1081C31.1805 10.8828 31.3637 10.6996 31.589 10.6996H34.0663C34.2916 10.6996 34.4749 10.8828 34.4749 11.1081V12.3863H31.1805V11.1081ZM15.5249 11.7122C15.5249 11.6452 15.5794 11.5908 15.6464 11.5908H24.3536C24.4206 11.5908 24.4751 11.6452 24.4751 11.7122V12.3858H15.5249V11.7122ZM3.66144 37.089V16.5818H5.56649V37.089H3.66144ZM6.74572 18.7332V16.5818H8.83739C8.81396 17.7382 7.89422 18.6783 6.74572 18.7332ZM24.5329 19.6965H15.4671V16.5818H24.5329V19.6965ZM33.2543 18.7332C32.1058 18.6783 31.186 17.7382 31.1626 16.5818H33.2543V18.7332Z" fill="white"/>
<path d="M19.7243 18.6557H20.2763C20.6019 18.6557 20.8658 18.3917 20.8658 18.0661C20.8658 17.7405 20.6019 17.4766 20.2763 17.4766H19.7243C19.3987 17.4766 19.1348 17.7405 19.1348 18.0661C19.1348 18.3917 19.3987 18.6557 19.7243 18.6557Z" fill="white"/>
</svg>
