<svg width="37" height="37" viewBox="0 0 37 37" fill="none" xmlns="http://www.w3.org/2000/svg">
<path d="M26.3872 18.2835C26.3872 16.9102 25.27 15.793 23.8967 15.793C22.5235 15.793 21.4062 16.9102 21.4062 18.2835C21.4062 19.6567 22.5235 20.7739 23.8967 20.7739C25.27 20.7739 26.3872 19.6567 26.3872 18.2835ZM22.4902 18.2835C22.4902 17.5079 23.1212 16.877 23.8967 16.877C24.6723 16.877 25.3032 17.5079 25.3032 18.2835C25.3032 19.059 24.6723 19.69 23.8967 19.69C23.1212 19.69 22.4902 19.059 22.4902 18.2835Z" fill="white"/>
<path d="M36.458 12.2295C35.3187 12.2295 34.3919 11.3027 34.3919 10.1635C34.3919 9.86414 34.1493 9.62147 33.8499 9.62147H27.8989L20.8741 5.36286C20.9497 5.12517 20.9905 4.8721 20.9905 4.60963C20.9905 3.23637 19.8733 2.11914 18.5 2.11914C17.1267 2.11914 16.0095 3.23637 16.0095 4.60963C16.0095 4.87203 16.0503 5.1251 16.1259 5.36286L9.10113 9.62147H3.15006C2.85073 9.62147 2.60807 9.86414 2.60807 10.1635C2.60807 11.3027 1.68126 12.2295 0.541992 12.2295C0.242668 12.2295 0 12.4722 0 12.7715V31.7327C0 32.032 0.242668 32.2746 0.541992 32.2746C1.68126 32.2746 2.60807 33.2015 2.60807 34.3407C2.60807 34.64 2.85073 34.8827 3.15006 34.8827H28.3319C28.6312 34.8827 28.8739 34.64 28.8739 34.3407C28.8739 34.0414 28.6312 33.7987 28.3319 33.7987H3.64537C3.41838 32.4953 2.38744 31.4643 1.08398 31.2373V13.2668C2.38744 13.0399 3.41838 12.0088 3.64537 10.7055H33.3546C33.5815 12.0089 34.6126 13.0399 35.9159 13.2668V31.2373C34.6125 31.4643 33.5815 32.4953 33.3546 33.7987H30.8193C30.5199 33.7987 30.2773 34.0413 30.2773 34.3406C30.2773 34.64 30.5199 34.8826 30.8193 34.8826H33.8499C34.1492 34.8826 34.3919 34.64 34.3919 34.3406C34.3919 33.2014 35.3187 32.2746 36.4579 32.2746C36.7573 32.2746 36.9999 32.0319 36.9999 31.7326V12.7715C37 12.4722 36.7573 12.2295 36.458 12.2295ZM18.5 3.20312C19.2756 3.20312 19.9065 3.83408 19.9065 4.60963C19.9065 5.38519 19.2756 6.01614 18.5 6.01614C17.7244 6.01614 17.0935 5.38519 17.0935 4.60963C17.0935 3.83408 17.7244 3.20312 18.5 3.20312ZM16.672 6.29942C17.1273 6.79155 17.7783 7.10012 18.5 7.10012C19.2217 7.10012 19.8727 6.79155 20.3279 6.29942L25.8078 9.62147H11.1921L16.672 6.29942Z" fill="white"/>
<path d="M5.12493 13.2344H6.80186C7.10118 13.2344 7.34385 12.9917 7.34385 12.6924C7.34385 12.3931 7.10118 12.1504 6.80186 12.1504H4.82633C4.63476 12.1504 4.45742 12.2515 4.35986 12.4164C3.97938 13.0594 3.4384 13.6005 2.79531 13.981C2.6304 14.0785 2.5293 14.2558 2.5293 14.4474V30.0559C2.5293 30.2475 2.6304 30.4249 2.79531 30.5224C3.4384 30.9029 3.97945 31.4439 4.35986 32.087C4.45742 32.2519 4.63476 32.353 4.82633 32.353H32.1736C32.3652 32.353 32.5425 32.2519 32.6401 32.087C33.0205 31.4439 33.5615 30.9029 34.2046 30.5224C34.3695 30.4249 34.4706 30.2475 34.4706 30.0559V14.4474C34.4706 14.2558 34.3695 14.0785 34.2046 13.981C33.5615 13.6005 33.0205 13.0595 32.6401 12.4164C32.5425 12.2515 32.3652 12.1504 32.1736 12.1504H9.30788C9.00856 12.1504 8.76589 12.3931 8.76589 12.6924C8.76589 12.9917 9.00856 13.2344 9.30788 13.2344H31.875C32.2754 13.8304 32.7906 14.3456 33.3866 14.746V25.7683L28.8364 21.2181C28.7348 21.1164 28.597 21.0593 28.4532 21.0593C28.3095 21.0593 28.1716 21.1164 28.07 21.2181L23.8972 25.3908L16.1112 17.6047C15.8995 17.393 15.5563 17.393 15.3447 17.6047L11.4147 21.5347L8.93001 19.05C8.8284 18.9483 8.69052 18.8913 8.54678 18.8913C8.40305 18.8913 8.26516 18.9483 8.16356 19.05L3.61328 23.6003V14.746C4.2094 14.3456 4.72451 13.8304 5.12493 13.2344ZM8.54671 20.1998L12.5956 24.2487C12.7014 24.3545 12.8402 24.4074 12.9788 24.4074C13.1175 24.4074 13.2563 24.3545 13.3621 24.2487C13.5737 24.037 13.5737 23.6938 13.3621 23.4822L12.1812 22.3013L15.728 18.7545L23.514 26.5406L25.132 28.1587C25.2378 28.2645 25.3766 28.3174 25.5153 28.3174C25.6539 28.3174 25.7927 28.2645 25.8985 28.1587C26.1101 27.947 26.1101 27.6038 25.8985 27.3922L24.6637 26.1574L28.4532 22.3679L33.3867 27.3012V29.7573C32.7906 30.1578 32.2754 30.6729 31.8751 31.2691H5.12501C4.72458 30.6729 4.2094 30.1578 3.61328 29.7573V25.1333L8.54671 20.1998Z" fill="white"/>
</svg>
